<?xml version="1.0" encoding="utf-8"?>
<!-- Generator: Adobe Illustrator 24.3.0, SVG Export Plug-In . SVG Version: 6.00 Build 0)  -->
<svg version="1.1" id="Layer_1" xmlns="http://www.w3.org/2000/svg" xmlns:xlink="http://www.w3.org/1999/xlink" x="0px" y="0px"
	 viewBox="0 0 512 512" style="enable-background:new 0 0 512 512;" xml:space="preserve">
<style type="text/css">
	.st0{fill:#2095A2;}
</style>
<g id="Cloud_link_organization">
	<path class="st0" d="M468.1,283.5l-124.5-81.7c-3.9-2.6-9-2.6-12.9-0.1l-128,81.7c-5.5,3.5-7.2,10.9-3.6,16.4c2.2,3.4,6,5.5,10,5.5
		h13.4c-0.1,0.7-0.2,1.4-0.2,2.1v15.6c0,8.3,6.8,15.1,15.1,15.1h11.5v74.2h-62.5c-3.7-12.7-17.1-20-29.8-16.3
		c-7.8,2.3-14,8.4-16.3,16.3h-22.8c-7.7,0-14-6.3-14-14V366c12.8-3.6,20.2-16.9,16.6-29.6c-2.3-8.1-8.6-14.4-16.6-16.6v-22.8
		c5.5,0.9,11.1,1.4,16.7,1.4h41.3c3.6,0,6.5-2.9,6.5-6.5s-2.9-6.5-6.5-6.5h-41.3c-47.4,0-86.2-38-86.6-84.8
		c-0.4-47.2,37.6-85.7,84.8-86.1c0.2,0,0.4,0,0.7,0l0.2,0h0.1c16.2,0,31-9.4,37.9-24.1c22.2-47.7,78.8-68.5,126.6-46.3
		c20.4,9.5,36.8,25.9,46.3,46.3c6.9,14.7,21.7,24.1,37.9,24.1h0.1l0.2,0c47.1-0.1,85.3,38.1,85.4,85.2c0,8.9-1.4,17.7-4.1,26.1
		c-1.1,3.4,0.7,7.1,4.1,8.2s7.1-0.7,8.2-4.1c0,0,0-0.1,0-0.1c16.6-51.7-12-107.1-63.7-123.7c-9.7-3.1-19.8-4.7-30-4.7l-0.3,0H368
		c-11.2,0-21.3-6.5-26.1-16.6C316.7,30.7,252.3,7.1,198,32.3c-23.2,10.8-41.8,29.4-52.6,52.6c-4.7,10.1-14.9,16.6-26,16.6
		c0,0-0.1,0-0.1,0l-0.3,0c-54.3,0-98.4,44.1-98.4,98.4c0,0.2,0,0.5,0,0.7c0.3,43.6,29.7,80.7,69.8,93.2v25.9
		c-12.8,3.6-20.2,16.9-16.7,29.6c2.3,8.1,8.6,14.4,16.7,16.7v32.4c0,14.9,12.1,27,27,27h22.6c3.4,12.8,16.6,20.4,29.4,17
		c8.3-2.2,14.8-8.7,17-17h35.9c-0.1,0.7-0.2,1.4-0.2,2.1v15.6c0,0.7,0.1,1.4,0.2,2.1h-5.8c-8.3,0-15.1,6.8-15.1,15.1v15.6
		c0,8.3,6.8,15.1,15.1,15.1h236.8c8.3,0,15.1-6.8,15.1-15.1v-15.6c0-8.3-6.8-15.1-15.1-15.1h-5.8c0.1-0.7,0.2-1.4,0.2-2.1v-15.6
		c0-8.3-6.8-15.1-15.1-15.1h-11.5v-74.2h11.5c8.3,0,15.1-6.8,15.1-15.1v-15.6c0-0.7-0.1-1.4-0.2-2.1h13.8c6.6,0,11.9-5.3,11.9-11.9
		C473.5,289.5,471.5,285.7,468.1,283.5L468.1,283.5z M85.9,342.9c0-6.1,4.9-11,11-11s11,4.9,11,11c0,6.1-4.9,11-11,11c0,0,0,0,0,0
		C90.9,353.9,85.9,349,85.9,342.9L85.9,342.9z M383.1,412.4h-28.9v-74.2h28.9L383.1,412.4z M316,412.4h-28.9v-74.2H316L316,412.4z
		 M163.3,430.2c-6.1,0-11-4.9-11-11c0-6.1,4.9-11,11-11c6.1,0,11,4.9,11,11c0,0,0,0,0,0C174.4,425.3,169.4,430.2,163.3,430.2
		L163.3,430.2z M434.9,427.5v15.6c0,1.2-0.9,2.1-2.1,2.1H237.4c-1.2,0-2.1-0.9-2.1-2.1v-15.6c0-1.2,0.9-2.1,2.1-2.1h195.4
		C434,425.4,434.9,426.3,434.9,427.5L434.9,427.5z M434.9,307.5v15.6c0,1.2-0.9,2.1-2.1,2.1H237.4c-1.2,0-2.1-0.9-2.1-2.1v-15.6
		c0-1.2,0.9-2.1,2.1-2.1h195.4C434,305.4,434.9,306.3,434.9,307.5L434.9,307.5z"/>
	<path class="st0" d="M119.4,132.4c-37,0-67,30-67,67c0,0.2,0,0.3,0,0.5c0,3.6,2.9,6.5,6.5,6.5h0c3.6,0,6.5-3,6.5-6.5c0,0,0,0,0,0
		c-0.2-29.8,23.8-54.2,53.6-54.4c0.1,0,0.3,0,0.4,0l0.4,0c3.6,0,6.5-2.9,6.5-6.5c0-3.6-2.9-6.5-6.5-6.5L119.4,132.4z"/>
</g>
</svg>
