<?xml version="1.0" encoding="utf-8"?>
<!-- Generator: Adobe Illustrator 24.3.0, SVG Export Plug-In . SVG Version: 6.00 Build 0)  -->
<svg version="1.1" id="Layer_1" xmlns="http://www.w3.org/2000/svg" xmlns:xlink="http://www.w3.org/1999/xlink" x="0px" y="0px"
	 viewBox="0 0 64 64" style="enable-background:new 0 0 64 64;" xml:space="preserve">
<style type="text/css">
	.st0{fill:#2095A2;}
</style>
<g id="_17_quality">
	<path class="st0" d="M40.4,20.6c-0.1-0.4-0.5-0.7-1-0.7h-5L33,15.2c-0.2-0.5-0.7-0.8-1.3-0.6c-0.3,0.1-0.5,0.3-0.6,0.6l-1.5,4.7h-5
		c-0.4,0-0.8,0.3-1,0.7c-0.1,0.4,0,0.9,0.4,1.1l4,2.9l-1.5,4.7c-0.1,0.4,0,0.9,0.4,1.1c0.4,0.3,0.8,0.3,1.2,0l4-2.9l4,2.9
		c0.2,0.1,0.4,0.2,0.6,0.2c0.2,0,0.4-0.1,0.6-0.2c0.4-0.3,0.5-0.7,0.4-1.1L36,24.6l4-2.9C40.4,21.4,40.5,21,40.4,20.6z M34.3,23.4
		c-0.4,0.3-0.5,0.7-0.4,1.1l0.8,2.5l-2.1-1.5c-0.4-0.3-0.8-0.3-1.2,0L29.3,27l0.8-2.5c0.1-0.4,0-0.9-0.4-1.1l-2.1-1.5h2.6
		c0.4,0,0.8-0.3,1-0.7l0.8-2.5l0.8,2.5c0.1,0.4,0.5,0.7,1,0.7h2.6L34.3,23.4z"/>
	<path class="st0" d="M32,10.3c-7.3,0-13.2,5.9-13.2,13.2c0,6.9,5.3,12.6,12.1,13.2c0.4,0,0.8,0,1.1,0c0.3,0,0.7,0,1,0h0.1v0
		c7.3-0.6,12.7-7,12.1-14.3C44.6,15.5,38.9,10.3,32,10.3z M41.8,29C41.8,29,41.8,29,41.8,29c-1.8,3.3-5.1,5.4-8.9,5.7l0,0h0
		c-0.6,0.1-1.3,0.1-1.9,0c-6.2-0.5-10.8-6-10.2-12.1s6-10.8,12.1-10.2c6.2,0.5,10.8,6,10.2,12.1C43.1,26,42.6,27.6,41.8,29z"/>
	<path class="st0" d="M58.9,52.7l-3.8-5.8c-2.7-4.2-5.4-8.3-8.1-12.5c0.2-0.1,0.5-0.2,0.7-0.2c1.1-0.2,2.1-0.9,2.7-1.8
		c0.3-1.1,0.3-2.2-0.2-3.2c-0.2-0.5-0.4-1.1-0.4-1.6c0.2-0.5,0.6-0.9,1-1.2c0.9-0.7,1.5-1.7,1.6-2.8c-0.1-1.1-0.7-2.1-1.6-2.8
		c-0.4-0.3-0.8-0.8-1-1.3c0-0.6,0.1-1.1,0.4-1.6c0.5-1,0.6-2.1,0.2-3.2c-0.6-0.9-1.6-1.6-2.7-1.8c-0.5-0.1-1-0.4-1.5-0.7
		c-0.2-0.5-0.3-1.1-0.4-1.6c0-1.1-0.4-2.2-1.2-3c-1-0.6-2.1-0.7-3.2-0.4c-0.5,0.1-1.1,0.1-1.7,0c-0.4-0.4-0.8-0.8-1-1.3
		c-0.5-1-1.3-1.8-2.4-2.2c-1.1-0.1-2.2,0.3-3,1c-0.5,0.3-1,0.6-1.5,0.7c-0.6-0.1-1.1-0.4-1.5-0.7c-0.8-0.7-1.9-1.1-3-1
		c-1.1,0.4-1.9,1.2-2.4,2.2c-0.2,0.5-0.6,0.9-1,1.3c-0.5,0.1-1.1,0.1-1.7,0c-1.1-0.3-2.2-0.1-3.2,0.4c-0.8,0.8-1.2,1.9-1.2,3
		c0,0.6-0.1,1.1-0.4,1.6c-0.4,0.3-0.9,0.6-1.5,0.7c-1.1,0.2-2.1,0.9-2.7,1.8c-0.3,1.1-0.3,2.2,0.2,3.2c0.2,0.5,0.4,1.1,0.4,1.6
		c-0.2,0.5-0.6,0.9-1,1.3c-0.9,0.7-1.5,1.7-1.6,2.8c0.2,1.1,0.7,2.1,1.6,2.8c0.4,0.3,0.8,0.8,1,1.2c0,0.6-0.1,1.1-0.4,1.6
		c-0.5,1-0.6,2.1-0.2,3.2c0.6,0.9,1.6,1.6,2.7,1.8c0.2,0.1,0.5,0.2,0.7,0.3c-2.7,4.2-5.4,8.3-8.1,12.5l-3.8,5.8
		c-0.2,0.3-0.2,0.8,0,1.1c0.2,0.3,0.6,0.5,1,0.4L13,53l1.7,6.8c0.1,0.4,0.4,0.7,0.8,0.7c0.1,0,0.1,0,0.2,0c0.3,0,0.7-0.2,0.8-0.5
		l10.8-16.7c0.1,0,0.1,0.1,0.2,0.1c0.2,0,0.3,0.1,0.5,0.1c0.9-0.1,1.8-0.5,2.5-1c0.5-0.3,1-0.6,1.5-0.7c0.6,0.1,1.1,0.4,1.5,0.7
		c0.8,0.7,1.9,1.1,3,1c0.1,0,0.2-0.1,0.2-0.1L47.6,60c0.2,0.3,0.5,0.5,0.8,0.5c0.1,0,0.1,0,0.2,0c0.4-0.1,0.7-0.4,0.8-0.7L51,53
		l6.8,1.3c0.4,0.1,0.8-0.1,1-0.4C59.1,53.5,59.1,53.1,58.9,52.7z M16,57l-1.3-5.4c-0.1-0.5-0.6-0.8-1.1-0.8l-5.5,1l2.5-3.9
		c2.5-3.9,5-7.8,7.5-11.6c0,0,0,0.1,0,0.1c0,1.1,0.4,2.2,1.1,3c1,0.6,2.1,0.7,3.2,0.5c0.5-0.1,1.1-0.1,1.6,0c0.4,0.3,0.8,0.8,1,1.3
		c0.2,0.3,0.4,0.6,0.6,0.9L16,57z M36.4,41.3c-0.1,0.1-0.2,0.2-0.3,0.2c-0.3,0.1-1-0.4-1.5-0.7c-0.8-0.6-1.7-0.9-2.6-1
		c-0.9,0.1-1.8,0.5-2.6,1c-0.5,0.3-1.2,0.8-1.5,0.7c-0.1,0-0.2-0.1-0.3-0.2c-0.3-0.3-0.6-0.7-0.8-1.1c-0.4-0.8-1-1.5-1.8-2
		c-0.5-0.2-1-0.3-1.5-0.3c-0.4,0-0.9,0-1.3,0.1c-0.6,0.1-1.5,0.2-1.7,0s-0.3-1-0.4-1.7c0-0.9-0.3-1.9-0.8-2.6
		c-0.1-0.1-0.2-0.2-0.3-0.3c0,0-0.1-0.1-0.1-0.1l0,0h0c-0.6-0.4-1.3-0.8-2-1c-0.6-0.2-1.4-0.5-1.5-0.8c-0.1-0.3,0.1-1.1,0.3-1.6
		c0.4-0.9,0.5-1.8,0.4-2.7c-0.3-0.9-0.8-1.6-1.6-2.2c-0.4-0.4-1.1-1-1.1-1.4s0.6-1,1.1-1.4c0.7-0.6,1.3-1.4,1.6-2.2
		c0.1-0.9,0-1.9-0.4-2.7c-0.2-0.6-0.5-1.4-0.3-1.7s1-0.6,1.5-0.8c0.9-0.2,1.7-0.7,2.4-1.3c0.5-0.8,0.8-1.7,0.8-2.6
		c0.1-0.6,0.2-1.5,0.4-1.7s1.1-0.1,1.7,0c0.9,0.2,1.9,0.1,2.8-0.2c0.8-0.5,1.4-1.2,1.8-2c0.3-0.5,0.8-1.3,1.1-1.3
		c0.3-0.1,1,0.4,1.5,0.7c0.8,0.6,1.7,0.9,2.6,1c0.9-0.1,1.8-0.5,2.6-1c0.5-0.3,1.2-0.8,1.5-0.7c0.3,0.1,0.8,0.8,1.1,1.3
		c0.4,0.8,1,1.5,1.8,2c0.9,0.3,1.8,0.4,2.8,0.2c0.6-0.1,1.5-0.2,1.7,0s0.3,1,0.4,1.7c0,0.9,0.3,1.9,0.8,2.6c0.7,0.7,1.5,1.1,2.4,1.4
		c0.6,0.2,1.4,0.5,1.5,0.8c0.1,0.3-0.1,1.1-0.3,1.7c-0.4,0.9-0.5,1.8-0.4,2.7c0.3,0.9,0.8,1.6,1.5,2.2c0.4,0.4,1,1,1,1.4
		s-0.6,1-1,1.4c-0.7,0.6-1.3,1.4-1.5,2.2c-0.1,0.9,0,1.9,0.4,2.7c0.2,0.6,0.5,1.4,0.3,1.7s-1,0.6-1.5,0.8c-0.7,0.2-1.5,0.6-2.1,1
		c-0.1,0.1-0.2,0.2-0.3,0.3c-0.5,0.8-0.8,1.7-0.8,2.6c-0.1,0.6-0.2,1.5-0.4,1.7s-1.1,0.1-1.7,0c-0.9-0.2-1.9-0.1-2.8,0.2
		c-0.8,0.5-1.4,1.2-1.8,2C37,40.6,36.7,40.9,36.4,41.3z M50.5,50.8c-0.5-0.1-1,0.2-1.2,0.8L48,57l-9.6-14.9c0.2-0.3,0.4-0.6,0.6-0.9
		c0.2-0.5,0.6-0.9,1-1.3c0.5-0.1,1.1-0.1,1.7,0c1.1,0.3,2.2,0.1,3.2-0.5c0.8-0.8,1.2-1.9,1.2-3c0,0,0-0.1,0-0.1
		c2.5,3.9,5,7.8,7.5,11.6l2.5,3.9L50.5,50.8z"/>
</g>
</svg>
